<?xml version="1.0" encoding="utf-8"?><!-- Uploaded to: SVG Repo, www.svgrepo.com, Generator: SVG Repo Mixer Tools -->
<svg width="20px" height="20px" viewBox="0 0 24 24" id="Layer_1" data-name="Layer 1" xmlns="http://www.w3.org/2000/svg"><defs><style>.cls-1{fill:none;stroke:#020202;stroke-miterlimit:10;stroke-width:1px;}</style></defs><line class="cls-1" x1="17.73" y1="10.09" x2="10.09" y2="10.09"/><line class="cls-1" x1="17.73" y1="13.91" x2="10.09" y2="13.91"/><line class="cls-1" x1="17.73" y1="17.73" x2="10.09" y2="17.73"/><polyline class="cls-1" points="15.82 2.46 15.82 2.46 20.59 2.46 20.59 22.5 3.41 22.5 3.41 2.46 8.18 2.46 8.18 2.46"/><path class="cls-1" d="M15.82,1.5V3.41a1.92,1.92,0,0,1-1.91,1.91H10.09A1.92,1.92,0,0,1,8.18,3.41V1.5Z"/><line class="cls-1" x1="6.27" y1="10.09" x2="8.18" y2="10.09"/><line class="cls-1" x1="6.27" y1="13.91" x2="8.18" y2="13.91"/><line class="cls-1" x1="6.27" y1="17.73" x2="8.18" y2="17.73"/></svg>